<?xml version="1.0" encoding="UTF-8"?>
<svg id="Ebene_1" data-name="Ebene 1" xmlns="http://www.w3.org/2000/svg" viewBox="0 0 48 48">
  <defs>
    <style>
      .cls-1 {
        fill: #1f4f45;
      }

      .cls-2 {
        fill: #fff;
      }
    </style>
  </defs>
  <path class="cls-1" d="M.57,24c0,12.94,10.49,23.43,23.43,23.43,4.35,0,8.43-1.19,11.92-3.26,2.28,1.03,4.73,1.7,7.21,1.97.83.09,1.45-.75,1.12-1.52-.77-1.83-1.4-4.19-1.72-6.29,3.07-3.96,4.89-8.93,4.89-14.33,0-12.94-10.49-23.43-23.43-23.43S.57,11.06.57,24Z"/>
  <g>
    <path class="cls-2" d="M5.2,23.08c0,1.46.06,2.62.15,3.52.13,1.39,1.26,2.5,2.69,2.63.06,0,.12.01.18.02.39,2.06,2.15,3.65,4.33,3.85,2.6.24,6.46.47,11.45.47s8.97-.22,11.47-.45c2.19-.2,3.95-1.8,4.34-3.87.05,0,.1,0,.15-.01,1.43-.13,2.56-1.24,2.69-2.63.08-.9.15-2.06.15-3.52s-.07-2.6-.16-3.53c-.06-.66-.35-1.25-.78-1.7l-1.41-.83c-.16-.04-.33-.07-.5-.09-.05,0-.1,0-.16-.01-.38-2.07-2.15-3.66-4.34-3.86-2.59-.24-6.46-.47-11.45-.47s-8.97.22-11.47.45c-2.2.2-3.97,1.81-4.34,3.89-.05,0-.09,0-.14.01-.17.02-.34.05-.5.09l-1.41.83c-.44.45-.72,1.04-.78,1.7-.09.92-.16,2.1-.16,3.53ZM10.16,23.08c0-2.02.08-3.9.23-5.57.11-1.21,1.1-2.17,2.35-2.29,2.21-.2,5.97-.44,11.26-.44s8.9.25,11.24.46c1.25.11,2.24,1.07,2.36,2.28.17,1.73.25,3.6.25,5.55s-.08,3.88-.23,5.55c-.11,1.22-1.1,2.19-2.35,2.3-3.18.29-7.07.44-11.26.44-5.05,0-8.9-.25-11.24-.46-1.25-.11-2.23-1.07-2.35-2.28-.17-1.73-.25-3.6-.25-5.55Z"/>
    <path class="cls-2" d="M33.82,18.93h0c1.37,0,2.48,1.04,2.48,2.32v2.58c0,1.28-1.11,2.32-2.48,2.32h0c-1.37,0-2.48-1.04-2.48-2.32v-2.58c0-1.28,1.11-2.32,2.48-2.32Z"/>
    <path class="cls-2" d="M14.18,18.93h0c1.37,0,2.48,1.04,2.48,2.32v2.58c0,1.28-1.11,2.32-2.48,2.32h0c-1.37,0-2.48-1.04-2.48-2.32v-2.58c0-1.28,1.11-2.32,2.48-2.32Z"/>
    <path class="cls-2" d="M22.2,26.96h3.6c.39,0,.67.4.55.78-.32,1.04-1.25,1.79-2.36,1.79-.68,0-1.3-.29-1.75-.75-.28-.29-.49-.64-.61-1.04-.12-.39.16-.78.55-.78Z"/>
  </g>
</svg>