<?xml version="1.0" encoding="UTF-8"?>
<svg id="Objects1" data-name="Objects" xmlns="http://www.w3.org/2000/svg" version="1.1" viewBox="0 0 266.1 263.4">
  <!-- Generator: Adobe Illustrator 30.3.0, SVG Export Plug-In . SVG Version: 2.1.3 Build 182)  -->
  <defs>
    <style>
      .st0 {
        fill: #c79c6d;
      }

      .st1 {
        fill: #fff;
      }

      .st1, .st2, .st3, .st4, .st5, .st6, .st7, .st8, .st9 {
        fill-rule: evenodd;
      }

      .st2 {
        fill: #4c4c4c;
      }

      .st3 {
        fill: #dbaf81;
      }

      .st10, .st5 {
        fill: #825026;
      }

      .st4 {
        fill: #5b351b;
      }

      .st11 {
        fill: #e6b683;
      }

      .st6 {
        fill: #684933;
      }

      .st7 {
        fill: #fad3a8;
      }

      .st8 {
        fill: #2b357a;
      }

      .st9 {
        fill: #6d4424;
      }
    </style>
  </defs>
  <rect class="st11" x="102.5" y="152.1" width="52.7" height="94.9"/>
  <path class="st5" d="M128.9,12.4c44.5,0,80.6,38.8,80.6,86.6s-36.1,86.6-80.6,86.6-80.6-38.8-80.6-86.6S84.3,12.4,128.9,12.4Z"/>
  <path class="st7" d="M131.6,53.2c35.6,0,63.5,19.3,59,65.5-1.3,13.2,11.5,6.2,11.5,11,0,39.2-32.8,71.1-73.3,71.1s-73.3-31.8-73.3-71.1c8.6,12.6,10-3.4,9.6-10.7-3.2-60.2,29.1-65.7,66.4-65.7Z"/>
  <g>
    <path class="st8" d="M104,100.7c3.5,0,6.3,4.7,6.3,10.6s-2.8,10.6-6.3,10.6-6.3-4.8-6.3-10.6,2.8-10.6,6.3-10.6Z"/>
    <path class="st1" d="M105,102.3c2,0,3.7,1.7,3.7,3.7s-1.7,3.7-3.7,3.7-3.7-1.7-3.7-3.7,1.7-3.7,3.7-3.7Z"/>
  </g>
  <g>
    <path class="st8" d="M153.7,100.7c3.5,0,6.3,4.7,6.3,10.6s-2.8,10.6-6.3,10.6-6.3-4.8-6.3-10.6,2.8-10.6,6.3-10.6Z"/>
    <path class="st1" d="M154.6,102.3c2,0,3.7,1.7,3.7,3.7s-1.7,3.7-3.7,3.7-3.7-1.7-3.7-3.7,1.7-3.7,3.7-3.7Z"/>
  </g>
  <g>
    <path class="st7" d="M210.7,105.5c-5.3-1.7-12.2,5.1-15.6,15.3-3.4,10.2-1.8,19.9,3.4,21.6,5.3,1.7,12.2-5.1,15.6-15.3,3.4-10.2,1.8-19.9-3.4-21.6Z"/>
    <path class="st7" d="M48.6,105.5c5.3-1.7,12.2,5.1,15.6,15.3,3.4,10.2,1.8,19.9-3.4,21.6-5.3,1.7-12.2-5.1-15.6-15.3-3.4-10.2-1.8-19.9,3.4-21.6Z"/>
  </g>
  <path class="st5" d="M78.4,48.8c-15.8,10-16.6,27.2-16.6,32.1s12.8.9,28.6-9.1c15.8-10,28.6-22.1,28.6-27.1s-24.8-6-40.6,4Z"/>
  <path class="st2" d="M207.6,237.9c-13.6-11.1-38.9-19.8-52.3-24.8-2.5,9.4-13.4,16.4-26.5,16.4s-24-7-26.5-16.4c-13.3,5-38.7,13.7-52.3,24.8,22.4,15.5,49.5,24.6,78.8,24.6s56.4-9.1,78.8-24.6Z"/>
  <path class="st10" d="M168.3,101.6c1.5,3.2-2.8,3.7-4.3.5-2.7-5.5-10.7-6.8-16.4-4.8-3.3,1.2-5.2-3.9-1.8-5.1,8.3-3,18.6,1.3,22.5,9.4Z"/>
  <path class="st0" d="M137.3,143.1c2.1-1.5,5.3,0,3.2,1.4-6.4,4.4-16.8,4.4-23.2,0-2.1-1.5.7-2.6,3.2-1.4,4.8,2.4,12.4,2.3,16.9,0Z"/>
  <path class="st9" d="M89,71.3c9.2-18.3,62.8-47.6,104.3-13.2-37.6-18.8-81.7,1-104.3,13.2Z"/>
  <path class="st10" d="M90,90.5c-2.1,2.9,2,4.2,4.2,1.3,3.6-4.9,11.8-4.7,17-1.7,3.1,1.8,5.8-2.9,2.7-4.7-7.6-4.4-18.6-2.1-23.9,5Z"/>
  <g>
    <path class="st3" d="M160.5,160.4c-2.2,9-65.3,8.2-64.1,0,21.4,4.6,42.8,4.7,64.1,0Z"/>
    <path class="st3" d="M142.4,170.1c-1,6.1-28.4,5.6-27.9,0,9.3,3.1,18.6,3.2,27.9,0Z"/>
  </g>
  <path class="st5" d="M99.9,53.2c-8.3-6.2-18.1-34.4,2.6-50.3-12.6,15.8-6.7,38.5-2.6,50.3Z"/>
  <path class="st5" d="M137,29.5c-10.8,5.2-45.4,6-51.8-15.2,10.2,14.5,37.2,15.5,51.8,15.2Z"/>
  <path class="st4" d="M93.9,69.1c9.2-14.5,55.4-36.2,86.1-7-29-16.5-66.6-2.1-86.1,7Z"/>
  <path class="st6" d="M65.4,82.7c9.4-12.5,50.5-35.4,72.3-16.3-22-9.3-55,6.7-72.3,16.3Z"/>
</svg>